<mxfile host="app.diagrams.net" agent="Mozilla/5.0 (Windows NT 10.0; Win64; x64) AppleWebKit/537.36 (KHTML, like Gecko) Chrome/135.0.0.0 Safari/537.36" version="26.2.14">
  <diagram name="Page-1" id="95embAu65B8JQ14LLNW8">
    <mxGraphModel dx="983" dy="548" grid="1" gridSize="10" guides="1" tooltips="1" connect="1" arrows="1" fold="1" page="1" pageScale="1" pageWidth="827" pageHeight="1169" math="0" shadow="0">
      <root>
        <mxCell id="0" />
        <mxCell id="1" parent="0" />
        <mxCell id="lpnY_BUWa9tR8jS-6ncE-18" value="product" style="swimlane;fontStyle=0;childLayout=stackLayout;horizontal=1;startSize=26;fillColor=none;horizontalStack=0;resizeParent=1;resizeParentMax=0;resizeLast=0;collapsible=1;marginBottom=0;whiteSpace=wrap;html=1;" parent="1" vertex="1">
          <mxGeometry x="610" y="350" width="140" height="234" as="geometry" />
        </mxCell>
        <mxCell id="lpnY_BUWa9tR8jS-6ncE-19" value="product_id { PK }" style="text;strokeColor=none;fillColor=none;align=left;verticalAlign=top;spacingLeft=4;spacingRight=4;overflow=hidden;rotatable=0;points=[[0,0.5],[1,0.5]];portConstraint=eastwest;whiteSpace=wrap;html=1;" parent="lpnY_BUWa9tR8jS-6ncE-18" vertex="1">
          <mxGeometry y="26" width="140" height="26" as="geometry" />
        </mxCell>
        <mxCell id="lpnY_BUWa9tR8jS-6ncE-20" value="name" style="text;strokeColor=none;fillColor=none;align=left;verticalAlign=top;spacingLeft=4;spacingRight=4;overflow=hidden;rotatable=0;points=[[0,0.5],[1,0.5]];portConstraint=eastwest;whiteSpace=wrap;html=1;" parent="lpnY_BUWa9tR8jS-6ncE-18" vertex="1">
          <mxGeometry y="52" width="140" height="26" as="geometry" />
        </mxCell>
        <mxCell id="lpnY_BUWa9tR8jS-6ncE-21" value="description" style="text;strokeColor=none;fillColor=none;align=left;verticalAlign=top;spacingLeft=4;spacingRight=4;overflow=hidden;rotatable=0;points=[[0,0.5],[1,0.5]];portConstraint=eastwest;whiteSpace=wrap;html=1;" parent="lpnY_BUWa9tR8jS-6ncE-18" vertex="1">
          <mxGeometry y="78" width="140" height="26" as="geometry" />
        </mxCell>
        <mxCell id="lpnY_BUWa9tR8jS-6ncE-22" value="price" style="text;strokeColor=none;fillColor=none;align=left;verticalAlign=top;spacingLeft=4;spacingRight=4;overflow=hidden;rotatable=0;points=[[0,0.5],[1,0.5]];portConstraint=eastwest;whiteSpace=wrap;html=1;" parent="lpnY_BUWa9tR8jS-6ncE-18" vertex="1">
          <mxGeometry y="104" width="140" height="26" as="geometry" />
        </mxCell>
        <mxCell id="lpnY_BUWa9tR8jS-6ncE-23" value="stock_quantity" style="text;strokeColor=none;fillColor=none;align=left;verticalAlign=top;spacingLeft=4;spacingRight=4;overflow=hidden;rotatable=0;points=[[0,0.5],[1,0.5]];portConstraint=eastwest;whiteSpace=wrap;html=1;" parent="lpnY_BUWa9tR8jS-6ncE-18" vertex="1">
          <mxGeometry y="130" width="140" height="26" as="geometry" />
        </mxCell>
        <mxCell id="lpnY_BUWa9tR8jS-6ncE-24" value="brand_id" style="text;strokeColor=none;fillColor=none;align=left;verticalAlign=top;spacingLeft=4;spacingRight=4;overflow=hidden;rotatable=0;points=[[0,0.5],[1,0.5]];portConstraint=eastwest;whiteSpace=wrap;html=1;" parent="lpnY_BUWa9tR8jS-6ncE-18" vertex="1">
          <mxGeometry y="156" width="140" height="26" as="geometry" />
        </mxCell>
        <mxCell id="lpnY_BUWa9tR8jS-6ncE-25" value="categtory_id" style="text;strokeColor=none;fillColor=none;align=left;verticalAlign=top;spacingLeft=4;spacingRight=4;overflow=hidden;rotatable=0;points=[[0,0.5],[1,0.5]];portConstraint=eastwest;whiteSpace=wrap;html=1;" parent="lpnY_BUWa9tR8jS-6ncE-18" vertex="1">
          <mxGeometry y="182" width="140" height="26" as="geometry" />
        </mxCell>
        <mxCell id="lpnY_BUWa9tR8jS-6ncE-65" value="is_active" style="text;strokeColor=none;fillColor=none;align=left;verticalAlign=top;spacingLeft=4;spacingRight=4;overflow=hidden;rotatable=0;points=[[0,0.5],[1,0.5]];portConstraint=eastwest;whiteSpace=wrap;html=1;" parent="lpnY_BUWa9tR8jS-6ncE-18" vertex="1">
          <mxGeometry y="208" width="140" height="26" as="geometry" />
        </mxCell>
        <mxCell id="lpnY_BUWa9tR8jS-6ncE-26" value="category" style="swimlane;fontStyle=0;childLayout=stackLayout;horizontal=1;startSize=26;fillColor=none;horizontalStack=0;resizeParent=1;resizeParentMax=0;resizeLast=0;collapsible=1;marginBottom=0;whiteSpace=wrap;html=1;" parent="1" vertex="1">
          <mxGeometry x="610" y="730" width="140" height="130" as="geometry" />
        </mxCell>
        <mxCell id="lpnY_BUWa9tR8jS-6ncE-27" value="category_id { PK }" style="text;strokeColor=none;fillColor=none;align=left;verticalAlign=top;spacingLeft=4;spacingRight=4;overflow=hidden;rotatable=0;points=[[0,0.5],[1,0.5]];portConstraint=eastwest;whiteSpace=wrap;html=1;" parent="lpnY_BUWa9tR8jS-6ncE-26" vertex="1">
          <mxGeometry y="26" width="140" height="26" as="geometry" />
        </mxCell>
        <mxCell id="lpnY_BUWa9tR8jS-6ncE-28" value="name" style="text;strokeColor=none;fillColor=none;align=left;verticalAlign=top;spacingLeft=4;spacingRight=4;overflow=hidden;rotatable=0;points=[[0,0.5],[1,0.5]];portConstraint=eastwest;whiteSpace=wrap;html=1;" parent="lpnY_BUWa9tR8jS-6ncE-26" vertex="1">
          <mxGeometry y="52" width="140" height="26" as="geometry" />
        </mxCell>
        <mxCell id="lpnY_BUWa9tR8jS-6ncE-29" value="description" style="text;strokeColor=none;fillColor=none;align=left;verticalAlign=top;spacingLeft=4;spacingRight=4;overflow=hidden;rotatable=0;points=[[0,0.5],[1,0.5]];portConstraint=eastwest;whiteSpace=wrap;html=1;" parent="lpnY_BUWa9tR8jS-6ncE-26" vertex="1">
          <mxGeometry y="78" width="140" height="26" as="geometry" />
        </mxCell>
        <mxCell id="lpnY_BUWa9tR8jS-6ncE-85" value="parent_id" style="text;strokeColor=none;fillColor=none;align=left;verticalAlign=top;spacingLeft=4;spacingRight=4;overflow=hidden;rotatable=0;points=[[0,0.5],[1,0.5]];portConstraint=eastwest;whiteSpace=wrap;html=1;" parent="lpnY_BUWa9tR8jS-6ncE-26" vertex="1">
          <mxGeometry y="104" width="140" height="26" as="geometry" />
        </mxCell>
        <mxCell id="lpnY_BUWa9tR8jS-6ncE-157" value="" style="endArrow=none;html=1;rounded=0;exitX=0.509;exitY=1.046;exitDx=0;exitDy=0;exitPerimeter=0;entryX=0;entryY=0.5;entryDx=0;entryDy=0;" parent="lpnY_BUWa9tR8jS-6ncE-26" source="lpnY_BUWa9tR8jS-6ncE-85" target="lpnY_BUWa9tR8jS-6ncE-28" edge="1">
          <mxGeometry width="50" height="50" relative="1" as="geometry">
            <mxPoint x="70" y="150" as="sourcePoint" />
            <mxPoint x="50" y="210" as="targetPoint" />
            <Array as="points">
              <mxPoint x="70" y="190" />
              <mxPoint x="-50" y="190" />
              <mxPoint x="-50" y="65" />
            </Array>
          </mxGeometry>
        </mxCell>
        <mxCell id="lpnY_BUWa9tR8jS-6ncE-30" value="brand" style="swimlane;fontStyle=0;childLayout=stackLayout;horizontal=1;startSize=26;fillColor=none;horizontalStack=0;resizeParent=1;resizeParentMax=0;resizeLast=0;collapsible=1;marginBottom=0;whiteSpace=wrap;html=1;" parent="1" vertex="1">
          <mxGeometry x="300" y="350" width="140" height="104" as="geometry" />
        </mxCell>
        <mxCell id="lpnY_BUWa9tR8jS-6ncE-31" value="brand_id { PK }" style="text;strokeColor=none;fillColor=none;align=left;verticalAlign=top;spacingLeft=4;spacingRight=4;overflow=hidden;rotatable=0;points=[[0,0.5],[1,0.5]];portConstraint=eastwest;whiteSpace=wrap;html=1;" parent="lpnY_BUWa9tR8jS-6ncE-30" vertex="1">
          <mxGeometry y="26" width="140" height="26" as="geometry" />
        </mxCell>
        <mxCell id="lpnY_BUWa9tR8jS-6ncE-32" value="name" style="text;strokeColor=none;fillColor=none;align=left;verticalAlign=top;spacingLeft=4;spacingRight=4;overflow=hidden;rotatable=0;points=[[0,0.5],[1,0.5]];portConstraint=eastwest;whiteSpace=wrap;html=1;" parent="lpnY_BUWa9tR8jS-6ncE-30" vertex="1">
          <mxGeometry y="52" width="140" height="26" as="geometry" />
        </mxCell>
        <mxCell id="lpnY_BUWa9tR8jS-6ncE-33" value="description" style="text;strokeColor=none;fillColor=none;align=left;verticalAlign=top;spacingLeft=4;spacingRight=4;overflow=hidden;rotatable=0;points=[[0,0.5],[1,0.5]];portConstraint=eastwest;whiteSpace=wrap;html=1;" parent="lpnY_BUWa9tR8jS-6ncE-30" vertex="1">
          <mxGeometry y="78" width="140" height="26" as="geometry" />
        </mxCell>
        <mxCell id="lpnY_BUWa9tR8jS-6ncE-35" value="user" style="swimlane;fontStyle=0;childLayout=stackLayout;horizontal=1;startSize=26;fillColor=none;horizontalStack=0;resizeParent=1;resizeParentMax=0;resizeLast=0;collapsible=1;marginBottom=0;whiteSpace=wrap;html=1;" parent="1" vertex="1">
          <mxGeometry x="990" y="90" width="140" height="286" as="geometry" />
        </mxCell>
        <mxCell id="lpnY_BUWa9tR8jS-6ncE-36" value="user_id { PK }" style="text;strokeColor=none;fillColor=none;align=left;verticalAlign=top;spacingLeft=4;spacingRight=4;overflow=hidden;rotatable=0;points=[[0,0.5],[1,0.5]];portConstraint=eastwest;whiteSpace=wrap;html=1;" parent="lpnY_BUWa9tR8jS-6ncE-35" vertex="1">
          <mxGeometry y="26" width="140" height="26" as="geometry" />
        </mxCell>
        <mxCell id="lpnY_BUWa9tR8jS-6ncE-37" value="name" style="text;strokeColor=none;fillColor=none;align=left;verticalAlign=top;spacingLeft=4;spacingRight=4;overflow=hidden;rotatable=0;points=[[0,0.5],[1,0.5]];portConstraint=eastwest;whiteSpace=wrap;html=1;" parent="lpnY_BUWa9tR8jS-6ncE-35" vertex="1">
          <mxGeometry y="52" width="140" height="26" as="geometry" />
        </mxCell>
        <mxCell id="lpnY_BUWa9tR8jS-6ncE-38" value="&lt;span style=&quot;white-space: pre;&quot;&gt;&#x9;&lt;/span&gt;first name" style="text;strokeColor=none;fillColor=none;align=left;verticalAlign=top;spacingLeft=4;spacingRight=4;overflow=hidden;rotatable=0;points=[[0,0.5],[1,0.5]];portConstraint=eastwest;whiteSpace=wrap;html=1;" parent="lpnY_BUWa9tR8jS-6ncE-35" vertex="1">
          <mxGeometry y="78" width="140" height="26" as="geometry" />
        </mxCell>
        <mxCell id="lpnY_BUWa9tR8jS-6ncE-39" value="&lt;span style=&quot;white-space: pre;&quot;&gt;&#x9;&lt;/span&gt;last name" style="text;strokeColor=none;fillColor=none;align=left;verticalAlign=top;spacingLeft=4;spacingRight=4;overflow=hidden;rotatable=0;points=[[0,0.5],[1,0.5]];portConstraint=eastwest;whiteSpace=wrap;html=1;" parent="lpnY_BUWa9tR8jS-6ncE-35" vertex="1">
          <mxGeometry y="104" width="140" height="26" as="geometry" />
        </mxCell>
        <mxCell id="lpnY_BUWa9tR8jS-6ncE-40" value="username" style="text;strokeColor=none;fillColor=none;align=left;verticalAlign=top;spacingLeft=4;spacingRight=4;overflow=hidden;rotatable=0;points=[[0,0.5],[1,0.5]];portConstraint=eastwest;whiteSpace=wrap;html=1;" parent="lpnY_BUWa9tR8jS-6ncE-35" vertex="1">
          <mxGeometry y="130" width="140" height="26" as="geometry" />
        </mxCell>
        <mxCell id="lpnY_BUWa9tR8jS-6ncE-41" value="email" style="text;strokeColor=none;fillColor=none;align=left;verticalAlign=top;spacingLeft=4;spacingRight=4;overflow=hidden;rotatable=0;points=[[0,0.5],[1,0.5]];portConstraint=eastwest;whiteSpace=wrap;html=1;" parent="lpnY_BUWa9tR8jS-6ncE-35" vertex="1">
          <mxGeometry y="156" width="140" height="26" as="geometry" />
        </mxCell>
        <mxCell id="lpnY_BUWa9tR8jS-6ncE-42" value="password" style="text;strokeColor=none;fillColor=none;align=left;verticalAlign=top;spacingLeft=4;spacingRight=4;overflow=hidden;rotatable=0;points=[[0,0.5],[1,0.5]];portConstraint=eastwest;whiteSpace=wrap;html=1;" parent="lpnY_BUWa9tR8jS-6ncE-35" vertex="1">
          <mxGeometry y="182" width="140" height="26" as="geometry" />
        </mxCell>
        <mxCell id="lpnY_BUWa9tR8jS-6ncE-43" value="address_id" style="text;strokeColor=none;fillColor=none;align=left;verticalAlign=top;spacingLeft=4;spacingRight=4;overflow=hidden;rotatable=0;points=[[0,0.5],[1,0.5]];portConstraint=eastwest;whiteSpace=wrap;html=1;" parent="lpnY_BUWa9tR8jS-6ncE-35" vertex="1">
          <mxGeometry y="208" width="140" height="26" as="geometry" />
        </mxCell>
        <mxCell id="lpnY_BUWa9tR8jS-6ncE-44" value="phone" style="text;strokeColor=none;fillColor=none;align=left;verticalAlign=top;spacingLeft=4;spacingRight=4;overflow=hidden;rotatable=0;points=[[0,0.5],[1,0.5]];portConstraint=eastwest;whiteSpace=wrap;html=1;" parent="lpnY_BUWa9tR8jS-6ncE-35" vertex="1">
          <mxGeometry y="234" width="140" height="26" as="geometry" />
        </mxCell>
        <mxCell id="lpnY_BUWa9tR8jS-6ncE-66" value="role" style="text;strokeColor=none;fillColor=none;align=left;verticalAlign=top;spacingLeft=4;spacingRight=4;overflow=hidden;rotatable=0;points=[[0,0.5],[1,0.5]];portConstraint=eastwest;whiteSpace=wrap;html=1;" parent="lpnY_BUWa9tR8jS-6ncE-35" vertex="1">
          <mxGeometry y="260" width="140" height="26" as="geometry" />
        </mxCell>
        <mxCell id="lpnY_BUWa9tR8jS-6ncE-46" value="order" style="swimlane;fontStyle=0;childLayout=stackLayout;horizontal=1;startSize=26;fillColor=none;horizontalStack=0;resizeParent=1;resizeParentMax=0;resizeLast=0;collapsible=1;marginBottom=0;whiteSpace=wrap;html=1;" parent="1" vertex="1">
          <mxGeometry x="1190" y="460" width="140" height="234" as="geometry" />
        </mxCell>
        <mxCell id="lpnY_BUWa9tR8jS-6ncE-47" value="order_id { PK }" style="text;strokeColor=none;fillColor=none;align=left;verticalAlign=top;spacingLeft=4;spacingRight=4;overflow=hidden;rotatable=0;points=[[0,0.5],[1,0.5]];portConstraint=eastwest;whiteSpace=wrap;html=1;" parent="lpnY_BUWa9tR8jS-6ncE-46" vertex="1">
          <mxGeometry y="26" width="140" height="26" as="geometry" />
        </mxCell>
        <mxCell id="lpnY_BUWa9tR8jS-6ncE-48" value="user_id" style="text;strokeColor=none;fillColor=none;align=left;verticalAlign=top;spacingLeft=4;spacingRight=4;overflow=hidden;rotatable=0;points=[[0,0.5],[1,0.5]];portConstraint=eastwest;whiteSpace=wrap;html=1;" parent="lpnY_BUWa9tR8jS-6ncE-46" vertex="1">
          <mxGeometry y="52" width="140" height="26" as="geometry" />
        </mxCell>
        <mxCell id="lpnY_BUWa9tR8jS-6ncE-49" value="order_date" style="text;strokeColor=none;fillColor=none;align=left;verticalAlign=top;spacingLeft=4;spacingRight=4;overflow=hidden;rotatable=0;points=[[0,0.5],[1,0.5]];portConstraint=eastwest;whiteSpace=wrap;html=1;" parent="lpnY_BUWa9tR8jS-6ncE-46" vertex="1">
          <mxGeometry y="78" width="140" height="26" as="geometry" />
        </mxCell>
        <mxCell id="lpnY_BUWa9tR8jS-6ncE-50" value="total_amount" style="text;strokeColor=none;fillColor=none;align=left;verticalAlign=top;spacingLeft=4;spacingRight=4;overflow=hidden;rotatable=0;points=[[0,0.5],[1,0.5]];portConstraint=eastwest;whiteSpace=wrap;html=1;" parent="lpnY_BUWa9tR8jS-6ncE-46" vertex="1">
          <mxGeometry y="104" width="140" height="26" as="geometry" />
        </mxCell>
        <mxCell id="lpnY_BUWa9tR8jS-6ncE-51" value="order_status_id" style="text;strokeColor=none;fillColor=none;align=left;verticalAlign=top;spacingLeft=4;spacingRight=4;overflow=hidden;rotatable=0;points=[[0,0.5],[1,0.5]];portConstraint=eastwest;whiteSpace=wrap;html=1;" parent="lpnY_BUWa9tR8jS-6ncE-46" vertex="1">
          <mxGeometry y="130" width="140" height="26" as="geometry" />
        </mxCell>
        <mxCell id="lpnY_BUWa9tR8jS-6ncE-71" value="tracking_number" style="text;strokeColor=none;fillColor=none;align=left;verticalAlign=top;spacingLeft=4;spacingRight=4;overflow=hidden;rotatable=0;points=[[0,0.5],[1,0.5]];portConstraint=eastwest;whiteSpace=wrap;html=1;" parent="lpnY_BUWa9tR8jS-6ncE-46" vertex="1">
          <mxGeometry y="156" width="140" height="26" as="geometry" />
        </mxCell>
        <mxCell id="lpnY_BUWa9tR8jS-6ncE-179" value="shipping_addr_id" style="text;strokeColor=none;fillColor=none;align=left;verticalAlign=top;spacingLeft=4;spacingRight=4;overflow=hidden;rotatable=0;points=[[0,0.5],[1,0.5]];portConstraint=eastwest;whiteSpace=wrap;html=1;" parent="lpnY_BUWa9tR8jS-6ncE-46" vertex="1">
          <mxGeometry y="182" width="140" height="26" as="geometry" />
        </mxCell>
        <mxCell id="lpnY_BUWa9tR8jS-6ncE-180" value="billing_addr_id" style="text;strokeColor=none;fillColor=none;align=left;verticalAlign=top;spacingLeft=4;spacingRight=4;overflow=hidden;rotatable=0;points=[[0,0.5],[1,0.5]];portConstraint=eastwest;whiteSpace=wrap;html=1;" parent="lpnY_BUWa9tR8jS-6ncE-46" vertex="1">
          <mxGeometry y="208" width="140" height="26" as="geometry" />
        </mxCell>
        <mxCell id="lpnY_BUWa9tR8jS-6ncE-52" value="order_item" style="swimlane;fontStyle=0;childLayout=stackLayout;horizontal=1;startSize=26;fillColor=none;horizontalStack=0;resizeParent=1;resizeParentMax=0;resizeLast=0;collapsible=1;marginBottom=0;whiteSpace=wrap;html=1;" parent="1" vertex="1">
          <mxGeometry x="850" y="487" width="140" height="182" as="geometry" />
        </mxCell>
        <mxCell id="lpnY_BUWa9tR8jS-6ncE-53" value="order_item_id { PK }" style="text;strokeColor=none;fillColor=none;align=left;verticalAlign=top;spacingLeft=4;spacingRight=4;overflow=hidden;rotatable=0;points=[[0,0.5],[1,0.5]];portConstraint=eastwest;whiteSpace=wrap;html=1;" parent="lpnY_BUWa9tR8jS-6ncE-52" vertex="1">
          <mxGeometry y="26" width="140" height="26" as="geometry" />
        </mxCell>
        <mxCell id="lpnY_BUWa9tR8jS-6ncE-54" value="order_id" style="text;strokeColor=none;fillColor=none;align=left;verticalAlign=top;spacingLeft=4;spacingRight=4;overflow=hidden;rotatable=0;points=[[0,0.5],[1,0.5]];portConstraint=eastwest;whiteSpace=wrap;html=1;" parent="lpnY_BUWa9tR8jS-6ncE-52" vertex="1">
          <mxGeometry y="52" width="140" height="26" as="geometry" />
        </mxCell>
        <mxCell id="lpnY_BUWa9tR8jS-6ncE-55" value="product_id" style="text;strokeColor=none;fillColor=none;align=left;verticalAlign=top;spacingLeft=4;spacingRight=4;overflow=hidden;rotatable=0;points=[[0,0.5],[1,0.5]];portConstraint=eastwest;whiteSpace=wrap;html=1;" parent="lpnY_BUWa9tR8jS-6ncE-52" vertex="1">
          <mxGeometry y="78" width="140" height="26" as="geometry" />
        </mxCell>
        <mxCell id="lpnY_BUWa9tR8jS-6ncE-56" value="quantity" style="text;strokeColor=none;fillColor=none;align=left;verticalAlign=top;spacingLeft=4;spacingRight=4;overflow=hidden;rotatable=0;points=[[0,0.5],[1,0.5]];portConstraint=eastwest;whiteSpace=wrap;html=1;" parent="lpnY_BUWa9tR8jS-6ncE-52" vertex="1">
          <mxGeometry y="104" width="140" height="26" as="geometry" />
        </mxCell>
        <mxCell id="lpnY_BUWa9tR8jS-6ncE-57" value="price_per_unit" style="text;strokeColor=none;fillColor=none;align=left;verticalAlign=top;spacingLeft=4;spacingRight=4;overflow=hidden;rotatable=0;points=[[0,0.5],[1,0.5]];portConstraint=eastwest;whiteSpace=wrap;html=1;" parent="lpnY_BUWa9tR8jS-6ncE-52" vertex="1">
          <mxGeometry y="130" width="140" height="26" as="geometry" />
        </mxCell>
        <mxCell id="lpnY_BUWa9tR8jS-6ncE-72" value="/ subtotal" style="text;strokeColor=none;fillColor=none;align=left;verticalAlign=top;spacingLeft=4;spacingRight=4;overflow=hidden;rotatable=0;points=[[0,0.5],[1,0.5]];portConstraint=eastwest;whiteSpace=wrap;html=1;" parent="lpnY_BUWa9tR8jS-6ncE-52" vertex="1">
          <mxGeometry y="156" width="140" height="26" as="geometry" />
        </mxCell>
        <mxCell id="lpnY_BUWa9tR8jS-6ncE-58" value="payment" style="swimlane;fontStyle=0;childLayout=stackLayout;horizontal=1;startSize=26;fillColor=none;horizontalStack=0;resizeParent=1;resizeParentMax=0;resizeLast=0;collapsible=1;marginBottom=0;whiteSpace=wrap;html=1;" parent="1" vertex="1">
          <mxGeometry x="1190" y="839" width="140" height="208" as="geometry" />
        </mxCell>
        <mxCell id="lpnY_BUWa9tR8jS-6ncE-59" value="payment_id { PK }" style="text;strokeColor=none;fillColor=none;align=left;verticalAlign=top;spacingLeft=4;spacingRight=4;overflow=hidden;rotatable=0;points=[[0,0.5],[1,0.5]];portConstraint=eastwest;whiteSpace=wrap;html=1;" parent="lpnY_BUWa9tR8jS-6ncE-58" vertex="1">
          <mxGeometry y="26" width="140" height="26" as="geometry" />
        </mxCell>
        <mxCell id="lpnY_BUWa9tR8jS-6ncE-60" value="order_id" style="text;strokeColor=none;fillColor=none;align=left;verticalAlign=top;spacingLeft=4;spacingRight=4;overflow=hidden;rotatable=0;points=[[0,0.5],[1,0.5]];portConstraint=eastwest;whiteSpace=wrap;html=1;" parent="lpnY_BUWa9tR8jS-6ncE-58" vertex="1">
          <mxGeometry y="52" width="140" height="26" as="geometry" />
        </mxCell>
        <mxCell id="lpnY_BUWa9tR8jS-6ncE-61" value="payment_method" style="text;strokeColor=none;fillColor=none;align=left;verticalAlign=top;spacingLeft=4;spacingRight=4;overflow=hidden;rotatable=0;points=[[0,0.5],[1,0.5]];portConstraint=eastwest;whiteSpace=wrap;html=1;" parent="lpnY_BUWa9tR8jS-6ncE-58" vertex="1">
          <mxGeometry y="78" width="140" height="26" as="geometry" />
        </mxCell>
        <mxCell id="lpnY_BUWa9tR8jS-6ncE-62" value="amount" style="text;strokeColor=none;fillColor=none;align=left;verticalAlign=top;spacingLeft=4;spacingRight=4;overflow=hidden;rotatable=0;points=[[0,0.5],[1,0.5]];portConstraint=eastwest;whiteSpace=wrap;html=1;" parent="lpnY_BUWa9tR8jS-6ncE-58" vertex="1">
          <mxGeometry y="104" width="140" height="26" as="geometry" />
        </mxCell>
        <mxCell id="lpnY_BUWa9tR8jS-6ncE-63" value="payment_date" style="text;strokeColor=none;fillColor=none;align=left;verticalAlign=top;spacingLeft=4;spacingRight=4;overflow=hidden;rotatable=0;points=[[0,0.5],[1,0.5]];portConstraint=eastwest;whiteSpace=wrap;html=1;" parent="lpnY_BUWa9tR8jS-6ncE-58" vertex="1">
          <mxGeometry y="130" width="140" height="26" as="geometry" />
        </mxCell>
        <mxCell id="lpnY_BUWa9tR8jS-6ncE-64" value="payments_status_id" style="text;strokeColor=none;fillColor=none;align=left;verticalAlign=top;spacingLeft=4;spacingRight=4;overflow=hidden;rotatable=0;points=[[0,0.5],[1,0.5]];portConstraint=eastwest;whiteSpace=wrap;html=1;" parent="lpnY_BUWa9tR8jS-6ncE-58" vertex="1">
          <mxGeometry y="156" width="140" height="26" as="geometry" />
        </mxCell>
        <mxCell id="lpnY_BUWa9tR8jS-6ncE-73" value="transaction_id" style="text;strokeColor=none;fillColor=none;align=left;verticalAlign=top;spacingLeft=4;spacingRight=4;overflow=hidden;rotatable=0;points=[[0,0.5],[1,0.5]];portConstraint=eastwest;whiteSpace=wrap;html=1;" parent="lpnY_BUWa9tR8jS-6ncE-58" vertex="1">
          <mxGeometry y="182" width="140" height="26" as="geometry" />
        </mxCell>
        <mxCell id="lpnY_BUWa9tR8jS-6ncE-67" value="address" style="swimlane;fontStyle=0;childLayout=stackLayout;horizontal=1;startSize=26;fillColor=none;horizontalStack=0;resizeParent=1;resizeParentMax=0;resizeLast=0;collapsible=1;marginBottom=0;whiteSpace=wrap;html=1;" parent="1" vertex="1">
          <mxGeometry x="1350" y="116" width="140" height="234" as="geometry" />
        </mxCell>
        <mxCell id="lpnY_BUWa9tR8jS-6ncE-68" value="address_id { PK }" style="text;strokeColor=none;fillColor=none;align=left;verticalAlign=top;spacingLeft=4;spacingRight=4;overflow=hidden;rotatable=0;points=[[0,0.5],[1,0.5]];portConstraint=eastwest;whiteSpace=wrap;html=1;" parent="lpnY_BUWa9tR8jS-6ncE-67" vertex="1">
          <mxGeometry y="26" width="140" height="26" as="geometry" />
        </mxCell>
        <mxCell id="lpnY_BUWa9tR8jS-6ncE-69" value="user_id" style="text;strokeColor=none;fillColor=none;align=left;verticalAlign=top;spacingLeft=4;spacingRight=4;overflow=hidden;rotatable=0;points=[[0,0.5],[1,0.5]];portConstraint=eastwest;whiteSpace=wrap;html=1;" parent="lpnY_BUWa9tR8jS-6ncE-67" vertex="1">
          <mxGeometry y="52" width="140" height="26" as="geometry" />
        </mxCell>
        <mxCell id="lpnY_BUWa9tR8jS-6ncE-70" value="address_line1" style="text;strokeColor=none;fillColor=none;align=left;verticalAlign=top;spacingLeft=4;spacingRight=4;overflow=hidden;rotatable=0;points=[[0,0.5],[1,0.5]];portConstraint=eastwest;whiteSpace=wrap;html=1;" parent="lpnY_BUWa9tR8jS-6ncE-67" vertex="1">
          <mxGeometry y="78" width="140" height="26" as="geometry" />
        </mxCell>
        <mxCell id="lpnY_BUWa9tR8jS-6ncE-74" value="address_line2" style="text;strokeColor=none;fillColor=none;align=left;verticalAlign=top;spacingLeft=4;spacingRight=4;overflow=hidden;rotatable=0;points=[[0,0.5],[1,0.5]];portConstraint=eastwest;whiteSpace=wrap;html=1;" parent="lpnY_BUWa9tR8jS-6ncE-67" vertex="1">
          <mxGeometry y="104" width="140" height="26" as="geometry" />
        </mxCell>
        <mxCell id="lpnY_BUWa9tR8jS-6ncE-75" value="city" style="text;strokeColor=none;fillColor=none;align=left;verticalAlign=top;spacingLeft=4;spacingRight=4;overflow=hidden;rotatable=0;points=[[0,0.5],[1,0.5]];portConstraint=eastwest;whiteSpace=wrap;html=1;" parent="lpnY_BUWa9tR8jS-6ncE-67" vertex="1">
          <mxGeometry y="130" width="140" height="26" as="geometry" />
        </mxCell>
        <mxCell id="lpnY_BUWa9tR8jS-6ncE-76" value="postal_code" style="text;strokeColor=none;fillColor=none;align=left;verticalAlign=top;spacingLeft=4;spacingRight=4;overflow=hidden;rotatable=0;points=[[0,0.5],[1,0.5]];portConstraint=eastwest;whiteSpace=wrap;html=1;" parent="lpnY_BUWa9tR8jS-6ncE-67" vertex="1">
          <mxGeometry y="156" width="140" height="26" as="geometry" />
        </mxCell>
        <mxCell id="lpnY_BUWa9tR8jS-6ncE-77" value="country" style="text;strokeColor=none;fillColor=none;align=left;verticalAlign=top;spacingLeft=4;spacingRight=4;overflow=hidden;rotatable=0;points=[[0,0.5],[1,0.5]];portConstraint=eastwest;whiteSpace=wrap;html=1;" parent="lpnY_BUWa9tR8jS-6ncE-67" vertex="1">
          <mxGeometry y="182" width="140" height="26" as="geometry" />
        </mxCell>
        <mxCell id="lpnY_BUWa9tR8jS-6ncE-78" value="address_type" style="text;strokeColor=none;fillColor=none;align=left;verticalAlign=top;spacingLeft=4;spacingRight=4;overflow=hidden;rotatable=0;points=[[0,0.5],[1,0.5]];portConstraint=eastwest;whiteSpace=wrap;html=1;" parent="lpnY_BUWa9tR8jS-6ncE-67" vertex="1">
          <mxGeometry y="208" width="140" height="26" as="geometry" />
        </mxCell>
        <mxCell id="lpnY_BUWa9tR8jS-6ncE-79" value="product_image" style="swimlane;fontStyle=0;childLayout=stackLayout;horizontal=1;startSize=26;fillColor=none;horizontalStack=0;resizeParent=1;resizeParentMax=0;resizeLast=0;collapsible=1;marginBottom=0;whiteSpace=wrap;html=1;" parent="1" vertex="1">
          <mxGeometry x="300" y="520" width="140" height="130" as="geometry" />
        </mxCell>
        <mxCell id="lpnY_BUWa9tR8jS-6ncE-80" value="image_id { PK }" style="text;strokeColor=none;fillColor=none;align=left;verticalAlign=top;spacingLeft=4;spacingRight=4;overflow=hidden;rotatable=0;points=[[0,0.5],[1,0.5]];portConstraint=eastwest;whiteSpace=wrap;html=1;" parent="lpnY_BUWa9tR8jS-6ncE-79" vertex="1">
          <mxGeometry y="26" width="140" height="26" as="geometry" />
        </mxCell>
        <mxCell id="lpnY_BUWa9tR8jS-6ncE-81" value="product_id" style="text;strokeColor=none;fillColor=none;align=left;verticalAlign=top;spacingLeft=4;spacingRight=4;overflow=hidden;rotatable=0;points=[[0,0.5],[1,0.5]];portConstraint=eastwest;whiteSpace=wrap;html=1;" parent="lpnY_BUWa9tR8jS-6ncE-79" vertex="1">
          <mxGeometry y="52" width="140" height="26" as="geometry" />
        </mxCell>
        <mxCell id="lpnY_BUWa9tR8jS-6ncE-82" value="image_url" style="text;strokeColor=none;fillColor=none;align=left;verticalAlign=top;spacingLeft=4;spacingRight=4;overflow=hidden;rotatable=0;points=[[0,0.5],[1,0.5]];portConstraint=eastwest;whiteSpace=wrap;html=1;" parent="lpnY_BUWa9tR8jS-6ncE-79" vertex="1">
          <mxGeometry y="78" width="140" height="26" as="geometry" />
        </mxCell>
        <mxCell id="lpnY_BUWa9tR8jS-6ncE-83" value="alt_text" style="text;strokeColor=none;fillColor=none;align=left;verticalAlign=top;spacingLeft=4;spacingRight=4;overflow=hidden;rotatable=0;points=[[0,0.5],[1,0.5]];portConstraint=eastwest;whiteSpace=wrap;html=1;" parent="lpnY_BUWa9tR8jS-6ncE-79" vertex="1">
          <mxGeometry y="104" width="140" height="26" as="geometry" />
        </mxCell>
        <mxCell id="lpnY_BUWa9tR8jS-6ncE-86" value="order_status" style="swimlane;fontStyle=0;childLayout=stackLayout;horizontal=1;startSize=26;fillColor=none;horizontalStack=0;resizeParent=1;resizeParentMax=0;resizeLast=0;collapsible=1;marginBottom=0;whiteSpace=wrap;html=1;" parent="1" vertex="1">
          <mxGeometry x="1500" y="460" width="140" height="78" as="geometry" />
        </mxCell>
        <mxCell id="lpnY_BUWa9tR8jS-6ncE-87" value="order_status_id { PK }" style="text;strokeColor=none;fillColor=none;align=left;verticalAlign=top;spacingLeft=4;spacingRight=4;overflow=hidden;rotatable=0;points=[[0,0.5],[1,0.5]];portConstraint=eastwest;whiteSpace=wrap;html=1;" parent="lpnY_BUWa9tR8jS-6ncE-86" vertex="1">
          <mxGeometry y="26" width="140" height="26" as="geometry" />
        </mxCell>
        <mxCell id="lpnY_BUWa9tR8jS-6ncE-88" value="status_name" style="text;strokeColor=none;fillColor=none;align=left;verticalAlign=top;spacingLeft=4;spacingRight=4;overflow=hidden;rotatable=0;points=[[0,0.5],[1,0.5]];portConstraint=eastwest;whiteSpace=wrap;html=1;" parent="lpnY_BUWa9tR8jS-6ncE-86" vertex="1">
          <mxGeometry y="52" width="140" height="26" as="geometry" />
        </mxCell>
        <mxCell id="lpnY_BUWa9tR8jS-6ncE-90" value="payment_status" style="swimlane;fontStyle=0;childLayout=stackLayout;horizontal=1;startSize=26;fillColor=none;horizontalStack=0;resizeParent=1;resizeParentMax=0;resizeLast=0;collapsible=1;marginBottom=0;whiteSpace=wrap;html=1;" parent="1" vertex="1">
          <mxGeometry x="1500" y="859" width="160" height="78" as="geometry" />
        </mxCell>
        <mxCell id="lpnY_BUWa9tR8jS-6ncE-91" value="payment_status_id { PK }" style="text;strokeColor=none;fillColor=none;align=left;verticalAlign=top;spacingLeft=4;spacingRight=4;overflow=hidden;rotatable=0;points=[[0,0.5],[1,0.5]];portConstraint=eastwest;whiteSpace=wrap;html=1;" parent="lpnY_BUWa9tR8jS-6ncE-90" vertex="1">
          <mxGeometry y="26" width="160" height="26" as="geometry" />
        </mxCell>
        <mxCell id="lpnY_BUWa9tR8jS-6ncE-92" value="status_name" style="text;strokeColor=none;fillColor=none;align=left;verticalAlign=top;spacingLeft=4;spacingRight=4;overflow=hidden;rotatable=0;points=[[0,0.5],[1,0.5]];portConstraint=eastwest;whiteSpace=wrap;html=1;" parent="lpnY_BUWa9tR8jS-6ncE-90" vertex="1">
          <mxGeometry y="52" width="160" height="26" as="geometry" />
        </mxCell>
        <mxCell id="lpnY_BUWa9tR8jS-6ncE-93" value="shopping_cart" style="swimlane;fontStyle=0;childLayout=stackLayout;horizontal=1;startSize=26;fillColor=none;horizontalStack=0;resizeParent=1;resizeParentMax=0;resizeLast=0;collapsible=1;marginBottom=0;whiteSpace=wrap;html=1;" parent="1" vertex="1">
          <mxGeometry x="610" y="141" width="140" height="104" as="geometry" />
        </mxCell>
        <mxCell id="lpnY_BUWa9tR8jS-6ncE-94" value="cart_id { PK }" style="text;strokeColor=none;fillColor=none;align=left;verticalAlign=top;spacingLeft=4;spacingRight=4;overflow=hidden;rotatable=0;points=[[0,0.5],[1,0.5]];portConstraint=eastwest;whiteSpace=wrap;html=1;" parent="lpnY_BUWa9tR8jS-6ncE-93" vertex="1">
          <mxGeometry y="26" width="140" height="26" as="geometry" />
        </mxCell>
        <mxCell id="lpnY_BUWa9tR8jS-6ncE-95" value="user_id" style="text;strokeColor=none;fillColor=none;align=left;verticalAlign=top;spacingLeft=4;spacingRight=4;overflow=hidden;rotatable=0;points=[[0,0.5],[1,0.5]];portConstraint=eastwest;whiteSpace=wrap;html=1;" parent="lpnY_BUWa9tR8jS-6ncE-93" vertex="1">
          <mxGeometry y="52" width="140" height="26" as="geometry" />
        </mxCell>
        <mxCell id="lpnY_BUWa9tR8jS-6ncE-96" value="updated_at" style="text;strokeColor=none;fillColor=none;align=left;verticalAlign=top;spacingLeft=4;spacingRight=4;overflow=hidden;rotatable=0;points=[[0,0.5],[1,0.5]];portConstraint=eastwest;whiteSpace=wrap;html=1;" parent="lpnY_BUWa9tR8jS-6ncE-93" vertex="1">
          <mxGeometry y="78" width="140" height="26" as="geometry" />
        </mxCell>
        <mxCell id="lpnY_BUWa9tR8jS-6ncE-98" value="cart_item" style="swimlane;fontStyle=0;childLayout=stackLayout;horizontal=1;startSize=26;fillColor=none;horizontalStack=0;resizeParent=1;resizeParentMax=0;resizeLast=0;collapsible=1;marginBottom=0;whiteSpace=wrap;html=1;" parent="1" vertex="1">
          <mxGeometry x="300" y="141" width="140" height="104" as="geometry" />
        </mxCell>
        <mxCell id="lpnY_BUWa9tR8jS-6ncE-99" value="cart_item_id { PK }" style="text;strokeColor=none;fillColor=none;align=left;verticalAlign=top;spacingLeft=4;spacingRight=4;overflow=hidden;rotatable=0;points=[[0,0.5],[1,0.5]];portConstraint=eastwest;whiteSpace=wrap;html=1;" parent="lpnY_BUWa9tR8jS-6ncE-98" vertex="1">
          <mxGeometry y="26" width="140" height="26" as="geometry" />
        </mxCell>
        <mxCell id="lpnY_BUWa9tR8jS-6ncE-100" value="cart_id" style="text;strokeColor=none;fillColor=none;align=left;verticalAlign=top;spacingLeft=4;spacingRight=4;overflow=hidden;rotatable=0;points=[[0,0.5],[1,0.5]];portConstraint=eastwest;whiteSpace=wrap;html=1;" parent="lpnY_BUWa9tR8jS-6ncE-98" vertex="1">
          <mxGeometry y="52" width="140" height="26" as="geometry" />
        </mxCell>
        <mxCell id="lpnY_BUWa9tR8jS-6ncE-101" value="product_id" style="text;strokeColor=none;fillColor=none;align=left;verticalAlign=top;spacingLeft=4;spacingRight=4;overflow=hidden;rotatable=0;points=[[0,0.5],[1,0.5]];portConstraint=eastwest;whiteSpace=wrap;html=1;" parent="lpnY_BUWa9tR8jS-6ncE-98" vertex="1">
          <mxGeometry y="78" width="140" height="26" as="geometry" />
        </mxCell>
        <mxCell id="lpnY_BUWa9tR8jS-6ncE-105" value="Has" style="text;html=1;align=center;verticalAlign=middle;resizable=0;points=[];autosize=1;strokeColor=none;fillColor=none;" parent="1" vertex="1">
          <mxGeometry x="1210" y="200" width="40" height="30" as="geometry" />
        </mxCell>
        <mxCell id="lpnY_BUWa9tR8jS-6ncE-106" value="" style="endArrow=none;html=1;rounded=0;exitX=0;exitY=0.5;exitDx=0;exitDy=0;entryX=1;entryY=0.5;entryDx=0;entryDy=0;" parent="1" source="lpnY_BUWa9tR8jS-6ncE-74" target="lpnY_BUWa9tR8jS-6ncE-40" edge="1">
          <mxGeometry width="50" height="50" relative="1" as="geometry">
            <mxPoint x="960" y="360" as="sourcePoint" />
            <mxPoint x="1010" y="310" as="targetPoint" />
          </mxGeometry>
        </mxCell>
        <mxCell id="lpnY_BUWa9tR8jS-6ncE-109" value="" style="shape=singleArrow;whiteSpace=wrap;html=1;arrowWidth=0.4;arrowSize=0.4;rotation=0;fillColor=light-dark(#000000,#000000);strokeColor=light-dark(#000000,#000000);fillStyle=solid;" parent="1" vertex="1">
          <mxGeometry x="1250" y="210" width="20" height="10" as="geometry" />
        </mxCell>
        <mxCell id="lpnY_BUWa9tR8jS-6ncE-114" value="1..*" style="text;html=1;align=center;verticalAlign=middle;resizable=0;points=[];autosize=1;strokeColor=none;fillColor=none;" parent="1" vertex="1">
          <mxGeometry x="1310" y="200" width="40" height="30" as="geometry" />
        </mxCell>
        <mxCell id="lpnY_BUWa9tR8jS-6ncE-115" value="1..1" style="text;html=1;align=center;verticalAlign=middle;resizable=0;points=[];autosize=1;strokeColor=none;fillColor=none;" parent="1" vertex="1">
          <mxGeometry x="1130" y="200" width="40" height="30" as="geometry" />
        </mxCell>
        <mxCell id="lpnY_BUWa9tR8jS-6ncE-116" value="" style="endArrow=none;html=1;rounded=0;entryX=0.52;entryY=1.038;entryDx=0;entryDy=0;entryPerimeter=0;exitX=0;exitY=0.5;exitDx=0;exitDy=0;" parent="1" source="lpnY_BUWa9tR8jS-6ncE-48" target="lpnY_BUWa9tR8jS-6ncE-66" edge="1">
          <mxGeometry width="50" height="50" relative="1" as="geometry">
            <mxPoint x="940" y="410" as="sourcePoint" />
            <mxPoint x="990" y="360" as="targetPoint" />
            <Array as="points">
              <mxPoint x="1063" y="525" />
            </Array>
          </mxGeometry>
        </mxCell>
        <mxCell id="lpnY_BUWa9tR8jS-6ncE-117" value="" style="shape=singleArrow;whiteSpace=wrap;html=1;arrowWidth=0.4;arrowSize=0.4;rotation=0;fillColor=light-dark(#000000,#000000);strokeColor=light-dark(#000000,#000000);fillStyle=solid;" parent="1" vertex="1">
          <mxGeometry x="1125" y="510" width="20" height="10" as="geometry" />
        </mxCell>
        <mxCell id="lpnY_BUWa9tR8jS-6ncE-118" value="Orders" style="text;html=1;align=center;verticalAlign=middle;resizable=0;points=[];autosize=1;strokeColor=none;fillColor=none;" parent="1" vertex="1">
          <mxGeometry x="1070" y="500" width="60" height="30" as="geometry" />
        </mxCell>
        <mxCell id="lpnY_BUWa9tR8jS-6ncE-119" value="0..*" style="text;html=1;align=center;verticalAlign=middle;resizable=0;points=[];autosize=1;strokeColor=none;fillColor=none;" parent="1" vertex="1">
          <mxGeometry x="1150" y="498" width="40" height="30" as="geometry" />
        </mxCell>
        <mxCell id="lpnY_BUWa9tR8jS-6ncE-120" value="1..1" style="text;html=1;align=center;verticalAlign=middle;resizable=0;points=[];autosize=1;strokeColor=none;fillColor=none;" parent="1" vertex="1">
          <mxGeometry x="1060" y="376" width="40" height="30" as="geometry" />
        </mxCell>
        <mxCell id="lpnY_BUWa9tR8jS-6ncE-121" value="" style="endArrow=none;html=1;rounded=0;entryX=1;entryY=0.5;entryDx=0;entryDy=0;exitX=0;exitY=0.5;exitDx=0;exitDy=0;" parent="1" source="lpnY_BUWa9tR8jS-6ncE-50" target="lpnY_BUWa9tR8jS-6ncE-55" edge="1">
          <mxGeometry width="50" height="50" relative="1" as="geometry">
            <mxPoint x="1290" y="580" as="sourcePoint" />
            <mxPoint x="1340" y="530" as="targetPoint" />
          </mxGeometry>
        </mxCell>
        <mxCell id="lpnY_BUWa9tR8jS-6ncE-122" value="" style="shape=singleArrow;whiteSpace=wrap;html=1;arrowWidth=0.4;arrowSize=0.4;rotation=-180;fillColor=light-dark(#000000,#000000);strokeColor=light-dark(#000000,#000000);fillStyle=solid;" parent="1" vertex="1">
          <mxGeometry x="1040" y="556" width="20" height="10" as="geometry" />
        </mxCell>
        <mxCell id="lpnY_BUWa9tR8jS-6ncE-123" value="Contains" style="text;html=1;align=center;verticalAlign=middle;resizable=0;points=[];autosize=1;strokeColor=none;fillColor=none;" parent="1" vertex="1">
          <mxGeometry x="1055" y="546" width="70" height="30" as="geometry" />
        </mxCell>
        <mxCell id="lpnY_BUWa9tR8jS-6ncE-124" value="1..*" style="text;html=1;align=center;verticalAlign=middle;resizable=0;points=[];autosize=1;strokeColor=none;fillColor=none;" parent="1" vertex="1">
          <mxGeometry x="990" y="546" width="40" height="30" as="geometry" />
        </mxCell>
        <mxCell id="lpnY_BUWa9tR8jS-6ncE-125" value="1..1" style="text;html=1;align=center;verticalAlign=middle;resizable=0;points=[];autosize=1;strokeColor=none;fillColor=none;" parent="1" vertex="1">
          <mxGeometry x="1150" y="546" width="40" height="30" as="geometry" />
        </mxCell>
        <mxCell id="lpnY_BUWa9tR8jS-6ncE-126" value="" style="endArrow=none;html=1;rounded=0;entryX=1;entryY=0.5;entryDx=0;entryDy=0;exitX=0;exitY=0.5;exitDx=0;exitDy=0;" parent="1" source="lpnY_BUWa9tR8jS-6ncE-87" target="lpnY_BUWa9tR8jS-6ncE-47" edge="1">
          <mxGeometry width="50" height="50" relative="1" as="geometry">
            <mxPoint x="1200" y="587" as="sourcePoint" />
            <mxPoint x="1000" y="588" as="targetPoint" />
          </mxGeometry>
        </mxCell>
        <mxCell id="lpnY_BUWa9tR8jS-6ncE-127" value="" style="shape=singleArrow;whiteSpace=wrap;html=1;arrowWidth=0.4;arrowSize=0.4;rotation=0;fillColor=light-dark(#000000,#000000);strokeColor=light-dark(#000000,#000000);fillStyle=solid;" parent="1" vertex="1">
          <mxGeometry x="1420" y="483" width="20" height="10" as="geometry" />
        </mxCell>
        <mxCell id="lpnY_BUWa9tR8jS-6ncE-128" value="is_of" style="text;html=1;align=center;verticalAlign=middle;resizable=0;points=[];autosize=1;strokeColor=none;fillColor=none;" parent="1" vertex="1">
          <mxGeometry x="1370" y="473" width="50" height="30" as="geometry" />
        </mxCell>
        <mxCell id="lpnY_BUWa9tR8jS-6ncE-129" value="1..1" style="text;html=1;align=center;verticalAlign=middle;resizable=0;points=[];autosize=1;strokeColor=none;fillColor=none;" parent="1" vertex="1">
          <mxGeometry x="1460" y="473" width="40" height="30" as="geometry" />
        </mxCell>
        <mxCell id="lpnY_BUWa9tR8jS-6ncE-130" value="1..*" style="text;html=1;align=center;verticalAlign=middle;resizable=0;points=[];autosize=1;strokeColor=none;fillColor=none;" parent="1" vertex="1">
          <mxGeometry x="1330" y="473" width="40" height="30" as="geometry" />
        </mxCell>
        <mxCell id="lpnY_BUWa9tR8jS-6ncE-131" value="" style="endArrow=none;html=1;rounded=0;exitX=1;exitY=0.5;exitDx=0;exitDy=0;entryX=0;entryY=0.5;entryDx=0;entryDy=0;" parent="1" source="lpnY_BUWa9tR8jS-6ncE-94" target="lpnY_BUWa9tR8jS-6ncE-38" edge="1">
          <mxGeometry width="50" height="50" relative="1" as="geometry">
            <mxPoint x="1360" y="243" as="sourcePoint" />
            <mxPoint x="1140" y="243" as="targetPoint" />
          </mxGeometry>
        </mxCell>
        <mxCell id="lpnY_BUWa9tR8jS-6ncE-133" value="" style="shape=singleArrow;whiteSpace=wrap;html=1;arrowWidth=0.4;arrowSize=0.4;rotation=-180;fillColor=light-dark(#000000,#000000);strokeColor=light-dark(#000000,#000000);fillStyle=solid;" parent="1" vertex="1">
          <mxGeometry x="830" y="167" width="20" height="10" as="geometry" />
        </mxCell>
        <mxCell id="lpnY_BUWa9tR8jS-6ncE-134" value="Owns" style="text;html=1;align=center;verticalAlign=middle;resizable=0;points=[];autosize=1;strokeColor=none;fillColor=none;" parent="1" vertex="1">
          <mxGeometry x="847" y="156" width="50" height="30" as="geometry" />
        </mxCell>
        <mxCell id="lpnY_BUWa9tR8jS-6ncE-135" value="1..1" style="text;html=1;align=center;verticalAlign=middle;resizable=0;points=[];autosize=1;strokeColor=none;fillColor=none;" parent="1" vertex="1">
          <mxGeometry x="950" y="156" width="40" height="30" as="geometry" />
        </mxCell>
        <mxCell id="lpnY_BUWa9tR8jS-6ncE-136" value="1..1" style="text;html=1;align=center;verticalAlign=middle;resizable=0;points=[];autosize=1;strokeColor=none;fillColor=none;" parent="1" vertex="1">
          <mxGeometry x="750" y="156" width="40" height="30" as="geometry" />
        </mxCell>
        <mxCell id="lpnY_BUWa9tR8jS-6ncE-137" value="" style="endArrow=none;html=1;rounded=0;entryX=0;entryY=0.5;entryDx=0;entryDy=0;exitX=1;exitY=0.5;exitDx=0;exitDy=0;" parent="1" source="lpnY_BUWa9tR8jS-6ncE-100" target="lpnY_BUWa9tR8jS-6ncE-95" edge="1">
          <mxGeometry width="50" height="50" relative="1" as="geometry">
            <mxPoint x="630" y="340" as="sourcePoint" />
            <mxPoint x="680" y="290" as="targetPoint" />
          </mxGeometry>
        </mxCell>
        <mxCell id="lpnY_BUWa9tR8jS-6ncE-138" value="" style="shape=singleArrow;whiteSpace=wrap;html=1;arrowWidth=0.4;arrowSize=0.4;rotation=0;fillColor=light-dark(#FFFFFF,#FFFFFF);strokeColor=light-dark(#000000,#000000);fillStyle=solid;" parent="1" vertex="1">
          <mxGeometry x="540" y="191" width="20" height="10" as="geometry" />
        </mxCell>
        <mxCell id="lpnY_BUWa9tR8jS-6ncE-139" value="put_in" style="text;html=1;align=center;verticalAlign=middle;resizable=0;points=[];autosize=1;strokeColor=none;fillColor=none;" parent="1" vertex="1">
          <mxGeometry x="489" y="180" width="60" height="30" as="geometry" />
        </mxCell>
        <mxCell id="lpnY_BUWa9tR8jS-6ncE-140" value="0..*" style="text;html=1;align=center;verticalAlign=middle;resizable=0;points=[];autosize=1;strokeColor=none;fillColor=none;" parent="1" vertex="1">
          <mxGeometry x="440" y="181" width="40" height="30" as="geometry" />
        </mxCell>
        <mxCell id="lpnY_BUWa9tR8jS-6ncE-141" value="1..1" style="text;html=1;align=center;verticalAlign=middle;resizable=0;points=[];autosize=1;strokeColor=none;fillColor=none;" parent="1" vertex="1">
          <mxGeometry x="573" y="182" width="40" height="30" as="geometry" />
        </mxCell>
        <mxCell id="lpnY_BUWa9tR8jS-6ncE-142" value="" style="endArrow=none;html=1;rounded=0;exitX=1;exitY=0.5;exitDx=0;exitDy=0;entryX=0;entryY=0.5;entryDx=0;entryDy=0;" parent="1" source="lpnY_BUWa9tR8jS-6ncE-32" target="lpnY_BUWa9tR8jS-6ncE-20" edge="1">
          <mxGeometry width="50" height="50" relative="1" as="geometry">
            <mxPoint x="720" y="450" as="sourcePoint" />
            <mxPoint x="590" y="430" as="targetPoint" />
          </mxGeometry>
        </mxCell>
        <mxCell id="lpnY_BUWa9tR8jS-6ncE-143" value="" style="shape=singleArrow;whiteSpace=wrap;html=1;arrowWidth=0.4;arrowSize=0.4;rotation=-180;fillColor=light-dark(#000000,#000000);strokeColor=light-dark(#000000,#000000);fillStyle=solid;" parent="1" vertex="1">
          <mxGeometry x="493" y="396" width="20" height="10" as="geometry" />
        </mxCell>
        <mxCell id="lpnY_BUWa9tR8jS-6ncE-144" value="is_of" style="text;html=1;align=center;verticalAlign=middle;resizable=0;points=[];autosize=1;strokeColor=none;fillColor=none;" parent="1" vertex="1">
          <mxGeometry x="505" y="385" width="50" height="30" as="geometry" />
        </mxCell>
        <mxCell id="lpnY_BUWa9tR8jS-6ncE-145" value="1..1" style="text;html=1;align=center;verticalAlign=middle;resizable=0;points=[];autosize=1;strokeColor=none;fillColor=none;" parent="1" vertex="1">
          <mxGeometry x="439" y="385" width="40" height="30" as="geometry" />
        </mxCell>
        <mxCell id="lpnY_BUWa9tR8jS-6ncE-146" value="1..*" style="text;html=1;align=center;verticalAlign=middle;resizable=0;points=[];autosize=1;strokeColor=none;fillColor=none;" parent="1" vertex="1">
          <mxGeometry x="570" y="385" width="40" height="30" as="geometry" />
        </mxCell>
        <mxCell id="lpnY_BUWa9tR8jS-6ncE-147" value="" style="shape=singleArrow;whiteSpace=wrap;html=1;arrowWidth=0.4;arrowSize=0.4;rotation=-180;fillColor=light-dark(#000000,#000000);strokeColor=light-dark(#000000,#000000);fillStyle=solid;" parent="1" vertex="1">
          <mxGeometry x="493" y="547" width="20" height="10" as="geometry" />
        </mxCell>
        <mxCell id="lpnY_BUWa9tR8jS-6ncE-148" value="has" style="text;html=1;align=center;verticalAlign=middle;resizable=0;points=[];autosize=1;strokeColor=none;fillColor=none;" parent="1" vertex="1">
          <mxGeometry x="510" y="536" width="40" height="30" as="geometry" />
        </mxCell>
        <mxCell id="lpnY_BUWa9tR8jS-6ncE-149" value="" style="endArrow=none;html=1;rounded=0;exitX=1;exitY=0.5;exitDx=0;exitDy=0;entryX=0;entryY=0.5;entryDx=0;entryDy=0;" parent="1" edge="1">
          <mxGeometry width="50" height="50" relative="1" as="geometry">
            <mxPoint x="440" y="566" as="sourcePoint" />
            <mxPoint x="610" y="566" as="targetPoint" />
          </mxGeometry>
        </mxCell>
        <mxCell id="lpnY_BUWa9tR8jS-6ncE-150" value="0..*" style="text;html=1;align=center;verticalAlign=middle;resizable=0;points=[];autosize=1;strokeColor=none;fillColor=none;" parent="1" vertex="1">
          <mxGeometry x="439" y="536" width="40" height="30" as="geometry" />
        </mxCell>
        <mxCell id="lpnY_BUWa9tR8jS-6ncE-151" value="1..1" style="text;html=1;align=center;verticalAlign=middle;resizable=0;points=[];autosize=1;strokeColor=none;fillColor=none;" parent="1" vertex="1">
          <mxGeometry x="569" y="536" width="40" height="30" as="geometry" />
        </mxCell>
        <mxCell id="lpnY_BUWa9tR8jS-6ncE-152" value="" style="endArrow=none;html=1;rounded=0;exitX=0.5;exitY=1;exitDx=0;exitDy=0;entryX=0.5;entryY=0;entryDx=0;entryDy=0;" parent="1" source="lpnY_BUWa9tR8jS-6ncE-18" target="lpnY_BUWa9tR8jS-6ncE-26" edge="1">
          <mxGeometry width="50" height="50" relative="1" as="geometry">
            <mxPoint x="680" y="600" as="sourcePoint" />
            <mxPoint x="680" y="710" as="targetPoint" />
          </mxGeometry>
        </mxCell>
        <mxCell id="lpnY_BUWa9tR8jS-6ncE-153" value="is_of" style="text;html=1;align=center;verticalAlign=middle;resizable=0;points=[];autosize=1;strokeColor=none;fillColor=none;" parent="1" vertex="1">
          <mxGeometry x="680" y="639" width="50" height="30" as="geometry" />
        </mxCell>
        <mxCell id="lpnY_BUWa9tR8jS-6ncE-154" value="" style="shape=singleArrow;whiteSpace=wrap;html=1;arrowWidth=0.4;arrowSize=0.4;rotation=0;fillColor=light-dark(#000000,#000000);strokeColor=light-dark(#000000,#000000);fillStyle=solid;" parent="1" vertex="1">
          <mxGeometry x="695" y="632" width="20" height="10" as="geometry" />
        </mxCell>
        <mxCell id="lpnY_BUWa9tR8jS-6ncE-155" value="1..*" style="text;html=1;align=center;verticalAlign=middle;resizable=0;points=[];autosize=1;strokeColor=none;fillColor=none;" parent="1" vertex="1">
          <mxGeometry x="680" y="584" width="40" height="30" as="geometry" />
        </mxCell>
        <mxCell id="lpnY_BUWa9tR8jS-6ncE-156" value="1..1" style="text;html=1;align=center;verticalAlign=middle;resizable=0;points=[];autosize=1;strokeColor=none;fillColor=none;" parent="1" vertex="1">
          <mxGeometry x="680" y="700" width="40" height="30" as="geometry" />
        </mxCell>
        <mxCell id="lpnY_BUWa9tR8jS-6ncE-158" value="is_parent" style="text;html=1;align=center;verticalAlign=middle;resizable=0;points=[];autosize=1;strokeColor=none;fillColor=none;" parent="1" vertex="1">
          <mxGeometry x="600" y="918" width="70" height="30" as="geometry" />
        </mxCell>
        <mxCell id="lpnY_BUWa9tR8jS-6ncE-159" value="" style="shape=singleArrow;whiteSpace=wrap;html=1;arrowWidth=0.4;arrowSize=0.4;rotation=-180;fillColor=light-dark(#000000,#000000);strokeColor=light-dark(#000000,#000000);fillStyle=solid;" parent="1" vertex="1">
          <mxGeometry x="583" y="928" width="20" height="10" as="geometry" />
        </mxCell>
        <mxCell id="lpnY_BUWa9tR8jS-6ncE-160" value="0..1" style="text;html=1;align=center;verticalAlign=middle;resizable=0;points=[];autosize=1;strokeColor=none;fillColor=none;" parent="1" vertex="1">
          <mxGeometry x="569" y="795" width="40" height="30" as="geometry" />
        </mxCell>
        <mxCell id="lpnY_BUWa9tR8jS-6ncE-161" value="0..*" style="text;html=1;align=center;verticalAlign=middle;resizable=0;points=[];autosize=1;strokeColor=none;fillColor=none;" parent="1" vertex="1">
          <mxGeometry x="680" y="860" width="40" height="30" as="geometry" />
        </mxCell>
        <mxCell id="lpnY_BUWa9tR8jS-6ncE-162" value="" style="endArrow=none;html=1;rounded=0;exitX=0.5;exitY=0;exitDx=0;exitDy=0;entryX=0.467;entryY=0.991;entryDx=0;entryDy=0;entryPerimeter=0;" parent="1" source="lpnY_BUWa9tR8jS-6ncE-18" target="lpnY_BUWa9tR8jS-6ncE-101" edge="1">
          <mxGeometry width="50" height="50" relative="1" as="geometry">
            <mxPoint x="610" y="400" as="sourcePoint" />
            <mxPoint x="370" y="250" as="targetPoint" />
            <Array as="points">
              <mxPoint x="680" y="300" />
              <mxPoint x="365" y="300" />
            </Array>
          </mxGeometry>
        </mxCell>
        <mxCell id="lpnY_BUWa9tR8jS-6ncE-163" value="" style="endArrow=none;html=1;rounded=0;exitX=0.25;exitY=0;exitDx=0;exitDy=0;entryX=0;entryY=0.5;entryDx=0;entryDy=0;" parent="1" source="lpnY_BUWa9tR8jS-6ncE-46" target="lpnY_BUWa9tR8jS-6ncE-76" edge="1">
          <mxGeometry width="50" height="50" relative="1" as="geometry">
            <mxPoint x="1260" y="440" as="sourcePoint" />
            <mxPoint x="1330" y="330" as="targetPoint" />
            <Array as="points">
              <mxPoint x="1225" y="285" />
            </Array>
          </mxGeometry>
        </mxCell>
        <mxCell id="lpnY_BUWa9tR8jS-6ncE-164" value="" style="endArrow=none;html=1;rounded=0;entryX=0.508;entryY=1.064;entryDx=0;entryDy=0;entryPerimeter=0;exitX=0.5;exitY=0;exitDx=0;exitDy=0;" parent="1" source="lpnY_BUWa9tR8jS-6ncE-58" edge="1">
          <mxGeometry width="50" height="50" relative="1" as="geometry">
            <mxPoint x="1140" y="830" as="sourcePoint" />
            <mxPoint x="1261.12" y="693.664" as="targetPoint" />
          </mxGeometry>
        </mxCell>
        <mxCell id="lpnY_BUWa9tR8jS-6ncE-165" value="records" style="text;html=1;align=center;verticalAlign=middle;resizable=0;points=[];autosize=1;strokeColor=none;fillColor=none;" parent="1" vertex="1">
          <mxGeometry x="1255" y="748" width="60" height="30" as="geometry" />
        </mxCell>
        <mxCell id="lpnY_BUWa9tR8jS-6ncE-166" value="" style="shape=singleArrow;whiteSpace=wrap;html=1;arrowWidth=0.4;arrowSize=0.4;rotation=0;fillColor=light-dark(#000000,#000000);strokeColor=light-dark(#000000,#000000);fillStyle=solid;" parent="1" vertex="1">
          <mxGeometry x="1275" y="741" width="20" height="10" as="geometry" />
        </mxCell>
        <mxCell id="lpnY_BUWa9tR8jS-6ncE-167" value="1..1" style="text;html=1;align=center;verticalAlign=middle;resizable=0;points=[];autosize=1;strokeColor=none;fillColor=none;" parent="1" vertex="1">
          <mxGeometry x="1260" y="692" width="40" height="30" as="geometry" />
        </mxCell>
        <mxCell id="lpnY_BUWa9tR8jS-6ncE-169" value="" style="endArrow=none;html=1;rounded=0;entryX=1;entryY=0.5;entryDx=0;entryDy=0;exitX=0;exitY=0.5;exitDx=0;exitDy=0;" parent="1" edge="1">
          <mxGeometry width="50" height="50" relative="1" as="geometry">
            <mxPoint x="1501" y="918" as="sourcePoint" />
            <mxPoint x="1331" y="918" as="targetPoint" />
          </mxGeometry>
        </mxCell>
        <mxCell id="lpnY_BUWa9tR8jS-6ncE-170" value="" style="shape=singleArrow;whiteSpace=wrap;html=1;arrowWidth=0.4;arrowSize=0.4;rotation=0;fillColor=light-dark(#000000,#000000);strokeColor=light-dark(#000000,#000000);fillStyle=solid;" parent="1" vertex="1">
          <mxGeometry x="1421" y="902" width="20" height="10" as="geometry" />
        </mxCell>
        <mxCell id="lpnY_BUWa9tR8jS-6ncE-171" value="is_of" style="text;html=1;align=center;verticalAlign=middle;resizable=0;points=[];autosize=1;strokeColor=none;fillColor=none;" parent="1" vertex="1">
          <mxGeometry x="1371" y="892" width="50" height="30" as="geometry" />
        </mxCell>
        <mxCell id="lpnY_BUWa9tR8jS-6ncE-172" value="1..1" style="text;html=1;align=center;verticalAlign=middle;resizable=0;points=[];autosize=1;strokeColor=none;fillColor=none;" parent="1" vertex="1">
          <mxGeometry x="1461" y="892" width="40" height="30" as="geometry" />
        </mxCell>
        <mxCell id="lpnY_BUWa9tR8jS-6ncE-173" value="1..*" style="text;html=1;align=center;verticalAlign=middle;resizable=0;points=[];autosize=1;strokeColor=none;fillColor=none;" parent="1" vertex="1">
          <mxGeometry x="1331" y="892" width="40" height="30" as="geometry" />
        </mxCell>
        <mxCell id="lpnY_BUWa9tR8jS-6ncE-174" value="1..1" style="text;html=1;align=center;verticalAlign=middle;resizable=0;points=[];autosize=1;strokeColor=none;fillColor=none;" parent="1" vertex="1">
          <mxGeometry x="680" y="320" width="40" height="30" as="geometry" />
        </mxCell>
        <mxCell id="lpnY_BUWa9tR8jS-6ncE-175" value="0..*" style="text;html=1;align=center;verticalAlign=middle;resizable=0;points=[];autosize=1;strokeColor=none;fillColor=none;" parent="1" vertex="1">
          <mxGeometry x="369" y="245" width="40" height="30" as="geometry" />
        </mxCell>
        <mxCell id="lpnY_BUWa9tR8jS-6ncE-176" value="" style="endArrow=none;html=1;rounded=0;entryX=1;entryY=0.5;entryDx=0;entryDy=0;exitX=0.5;exitY=0;exitDx=0;exitDy=0;" parent="1" source="lpnY_BUWa9tR8jS-6ncE-52" target="lpnY_BUWa9tR8jS-6ncE-19" edge="1">
          <mxGeometry width="50" height="50" relative="1" as="geometry">
            <mxPoint x="890" y="530" as="sourcePoint" />
            <mxPoint x="940" y="480" as="targetPoint" />
            <Array as="points">
              <mxPoint x="920" y="389" />
            </Array>
          </mxGeometry>
        </mxCell>
        <mxCell id="lpnY_BUWa9tR8jS-6ncE-177" value="1..1" style="text;html=1;align=center;verticalAlign=middle;resizable=0;points=[];autosize=1;strokeColor=none;fillColor=none;" parent="1" vertex="1">
          <mxGeometry x="750" y="358" width="40" height="30" as="geometry" />
        </mxCell>
        <mxCell id="lpnY_BUWa9tR8jS-6ncE-178" value="0..*" style="text;html=1;align=center;verticalAlign=middle;resizable=0;points=[];autosize=1;strokeColor=none;fillColor=none;" parent="1" vertex="1">
          <mxGeometry x="880" y="457" width="40" height="30" as="geometry" />
        </mxCell>
        <mxCell id="lpnY_BUWa9tR8jS-6ncE-181" value="ships_to" style="text;html=1;align=center;verticalAlign=middle;resizable=0;points=[];autosize=1;strokeColor=none;fillColor=none;" parent="1" vertex="1">
          <mxGeometry x="1210" y="255" width="70" height="30" as="geometry" />
        </mxCell>
        <mxCell id="lpnY_BUWa9tR8jS-6ncE-182" value="" style="shape=singleArrow;whiteSpace=wrap;html=1;arrowWidth=0.4;arrowSize=0.4;rotation=0;fillColor=light-dark(#000000,#000000);strokeColor=light-dark(#000000,#000000);fillStyle=solid;" parent="1" vertex="1">
          <mxGeometry x="1273" y="265" width="20" height="10" as="geometry" />
        </mxCell>
        <mxCell id="lpnY_BUWa9tR8jS-6ncE-183" value="1..1" style="text;html=1;align=center;verticalAlign=middle;resizable=0;points=[];autosize=1;strokeColor=none;fillColor=none;" parent="1" vertex="1">
          <mxGeometry x="1310" y="255" width="40" height="30" as="geometry" />
        </mxCell>
        <mxCell id="lpnY_BUWa9tR8jS-6ncE-184" value="0..*" style="text;html=1;align=center;verticalAlign=middle;resizable=0;points=[];autosize=1;strokeColor=none;fillColor=none;" parent="1" vertex="1">
          <mxGeometry x="1190" y="430" width="40" height="30" as="geometry" />
        </mxCell>
        <mxCell id="lpnY_BUWa9tR8jS-6ncE-185" value="" style="endArrow=none;html=1;rounded=0;exitX=0.75;exitY=0;exitDx=0;exitDy=0;entryX=0.491;entryY=1.046;entryDx=0;entryDy=0;entryPerimeter=0;" parent="1" source="lpnY_BUWa9tR8jS-6ncE-46" target="lpnY_BUWa9tR8jS-6ncE-78" edge="1">
          <mxGeometry width="50" height="50" relative="1" as="geometry">
            <mxPoint x="1300" y="370" as="sourcePoint" />
            <mxPoint x="1350" y="320" as="targetPoint" />
            <Array as="points">
              <mxPoint x="1295" y="400" />
              <mxPoint x="1419" y="400" />
            </Array>
          </mxGeometry>
        </mxCell>
        <mxCell id="lpnY_BUWa9tR8jS-6ncE-186" value="bills_to" style="text;html=1;align=center;verticalAlign=middle;resizable=0;points=[];autosize=1;strokeColor=none;fillColor=none;" parent="1" vertex="1">
          <mxGeometry x="1313.5" y="370" width="60" height="30" as="geometry" />
        </mxCell>
        <mxCell id="lpnY_BUWa9tR8jS-6ncE-187" value="" style="shape=singleArrow;whiteSpace=wrap;html=1;arrowWidth=0.4;arrowSize=0.4;rotation=0;fillColor=light-dark(#000000,#000000);strokeColor=light-dark(#000000,#000000);fillStyle=solid;" parent="1" vertex="1">
          <mxGeometry x="1371.5" y="380" width="20" height="10" as="geometry" />
        </mxCell>
        <mxCell id="lpnY_BUWa9tR8jS-6ncE-188" value="0..*" style="text;html=1;align=center;verticalAlign=middle;resizable=0;points=[];autosize=1;strokeColor=none;fillColor=none;" parent="1" vertex="1">
          <mxGeometry x="1290" y="430" width="40" height="30" as="geometry" />
        </mxCell>
        <mxCell id="lpnY_BUWa9tR8jS-6ncE-189" value="1..1" style="text;html=1;align=center;verticalAlign=middle;resizable=0;points=[];autosize=1;strokeColor=none;fillColor=none;" parent="1" vertex="1">
          <mxGeometry x="1421" y="350" width="40" height="30" as="geometry" />
        </mxCell>
        <mxCell id="lpnY_BUWa9tR8jS-6ncE-190" value="0..*" style="text;html=1;align=center;verticalAlign=middle;resizable=0;points=[];autosize=1;strokeColor=none;fillColor=none;" parent="1" vertex="1">
          <mxGeometry x="1260" y="809" width="40" height="30" as="geometry" />
        </mxCell>
        <mxCell id="lpnY_BUWa9tR8jS-6ncE-191" value="" style="shape=singleArrow;whiteSpace=wrap;html=1;arrowWidth=0.4;arrowSize=0.4;rotation=-180;fillColor=light-dark(#000000,#000000);strokeColor=light-dark(#000000,#000000);fillStyle=solid;" parent="1" vertex="1">
          <mxGeometry x="865" y="370" width="20" height="10" as="geometry" />
        </mxCell>
        <mxCell id="lpnY_BUWa9tR8jS-6ncE-192" value="is_of" style="text;html=1;align=center;verticalAlign=middle;resizable=0;points=[];autosize=1;strokeColor=none;fillColor=none;" parent="1" vertex="1">
          <mxGeometry x="880" y="360" width="50" height="30" as="geometry" />
        </mxCell>
        <mxCell id="lpnY_BUWa9tR8jS-6ncE-193" value="" style="shape=singleArrow;whiteSpace=wrap;html=1;arrowWidth=0.4;arrowSize=0.4;rotation=0;fillColor=light-dark(#000000,#000000);strokeColor=light-dark(#000000,#000000);fillStyle=solid;" parent="1" vertex="1">
          <mxGeometry x="559" y="275" width="20" height="10" as="geometry" />
        </mxCell>
        <mxCell id="lpnY_BUWa9tR8jS-6ncE-194" value="is_of" style="text;html=1;align=center;verticalAlign=middle;resizable=0;points=[];autosize=1;strokeColor=none;fillColor=none;" parent="1" vertex="1">
          <mxGeometry x="510" y="265" width="50" height="30" as="geometry" />
        </mxCell>
      </root>
    </mxGraphModel>
  </diagram>
</mxfile>
